<svg xmlns="http://www.w3.org/2000/svg" viewBox="0 0 64 64">
  <!-- QeSuite brand mark: shopping bag with sprout -->
  <path d="M21 25v-4c0-6.075 4.925-11 11-11s11 4.925 11 11v4" fill="none" stroke="#059669" stroke-width="5" stroke-linecap="round"/>
  <rect x="11" y="20" width="42" height="39" rx="10" fill="#059669"/>
  <!-- sprout -->
  <path d="M30.8 54v-7.5c0-4.2 2.2-8 5.6-10.2" fill="none" stroke="#ffffff" stroke-width="3.4" stroke-linecap="round"/>
  <path d="M36 37c-.6-6 3.6-11 9.8-11.4.6 6-3.6 11-9.8 11.4z" fill="#ffffff"/>
  <path d="M36.6 47c-.4-4.6 2.8-8.4 7.6-8.8.4 4.6-2.8 8.4-7.6 8.8z" fill="#ffffff"/>
  <path d="M29.4 45c.4-4.6-2.8-8.4-7.6-8.8-.4 4.6 2.8 8.4 7.6 8.8z" fill="#ffffff"/>
</svg>
